<svg width="375" height="813" viewBox="0 0 375 813" fill="none" xmlns="http://www.w3.org/2000/svg">
<g clip-path="url(#clip0_1862_17138)">
<rect width="375" height="813" fill="white"/>
<circle opacity="0.2" cx="48.7973" cy="78.6684" r="78.1684" stroke="url(#paint0_linear_1862_17138)"/>
<circle opacity="0.2" cx="294.079" cy="86.4353" r="33.0427" fill="url(#paint1_linear_1862_17138)"/>
<circle opacity="0.2" cx="62.697" cy="201.426" r="16.1572" fill="url(#paint2_linear_1862_17138)"/>
<circle opacity="0.2" cx="198.125" cy="91.7365" r="9.73699" stroke="url(#paint3_linear_1862_17138)"/>
<circle opacity="0.2" cx="353.885" cy="188.281" r="55.531" stroke="url(#paint4_linear_1862_17138)"/>
<circle opacity="0.2" r="78.1684" transform="matrix(-1 0 0 1 331.248 647.356)" stroke="url(#paint5_linear_1862_17138)"/>
<circle opacity="0.2" r="33.0427" transform="matrix(-1 0 0 1 85.9661 655.123)" fill="url(#paint6_linear_1862_17138)"/>
<circle opacity="0.2" r="16.1572" transform="matrix(-1 0 0 1 317.348 770.114)" fill="url(#paint7_linear_1862_17138)"/>
<circle opacity="0.2" r="9.73699" transform="matrix(-1 0 0 1 181.92 660.424)" stroke="url(#paint8_linear_1862_17138)"/>
<circle opacity="0.2" r="55.531" transform="matrix(-1 0 0 1 26.1599 756.969)" stroke="url(#paint9_linear_1862_17138)"/>
<circle opacity="0.05" cx="188.062" cy="374.062" r="95.0625" fill="url(#paint10_linear_1862_17138)"/>
<circle opacity="0.1" cx="187.814" cy="374.311" r="87.3505" fill="url(#paint11_linear_1862_17138)"/>
<circle opacity="0.2" cx="188.696" cy="373.43" r="78.2606" fill="url(#paint12_linear_1862_17138)"/>
<circle opacity="0.4" cx="188.695" cy="373.43" r="66.181" fill="url(#paint13_linear_1862_17138)"/>
<circle opacity="0.6" cx="187.543" cy="374.581" r="54.8163" fill="url(#paint14_linear_1862_17138)"/>
<path d="M231.24 374.062C231.24 379.776 230.128 385.23 228.112 390.22C225.56 396.543 221.551 402.123 216.504 406.543C208.906 413.196 198.955 417.23 188.063 417.23C180.11 417.23 172.657 415.08 166.26 411.327C160.148 407.747 154.997 402.706 151.282 396.682C147.789 391.014 145.566 384.475 145.02 377.467C144.93 376.343 144.886 375.209 144.886 374.062C144.886 350.223 164.216 330.894 188.063 330.894C188.493 330.894 188.921 330.899 189.349 330.912H189.352C192.231 330.997 195.036 331.363 197.746 331.984C201.786 332.91 205.612 334.402 209.131 336.371C222.322 343.758 231.24 357.87 231.24 374.062Z" fill="url(#paint15_linear_1862_17138)"/>
<path d="M227.704 390.055L227.704 390.055C225.178 396.313 221.21 401.836 216.213 406.212C208.693 412.797 198.844 416.789 188.063 416.789C180.19 416.789 172.814 414.661 166.483 410.947L166.483 410.947C160.433 407.403 155.334 402.413 151.657 396.451C148.2 390.841 146 384.369 145.459 377.433L145.459 377.431C145.37 376.32 145.326 375.197 145.326 374.062C145.326 350.466 164.459 331.335 188.063 331.335C188.49 331.335 188.913 331.34 189.336 331.353L189.336 331.353H189.345C192.194 331.437 194.968 331.8 197.648 332.414L197.648 332.414C201.646 333.33 205.432 334.807 208.915 336.756C221.973 344.068 230.799 358.036 230.799 374.062C230.799 379.719 229.699 385.117 227.704 390.055Z" stroke="white" stroke-opacity="0.5" stroke-width="0.881469"/>
<path opacity="0.06" d="M231.239 374.062C231.239 397.903 211.909 417.229 188.062 417.229C185.737 417.229 183.452 417.046 181.228 416.691C201.826 413.417 217.57 395.579 217.57 374.062C217.57 352.548 201.826 334.706 181.228 331.433C183.453 331.077 185.737 330.894 188.062 330.894C211.909 330.894 231.239 350.223 231.239 374.062Z" fill="#332A40"/>
<path opacity="0.3" d="M192.595 345.535C192.595 364.585 177.147 380.03 158.093 380.03C153.466 380.03 149.052 379.12 145.02 377.468C144.93 376.344 144.886 375.21 144.886 374.063C144.886 350.224 164.216 330.895 188.063 330.895C188.493 330.895 188.921 330.9 189.349 330.913H189.352C191.432 335.354 192.595 340.308 192.595 345.535Z" fill="white"/>
<path opacity="0.3" d="M209.138 336.665C209.138 340.34 206.157 343.322 202.478 343.322C198.802 343.322 195.822 340.34 195.822 336.665C195.822 334.84 196.557 333.185 197.745 331.984C201.785 332.909 205.611 334.402 209.13 336.371C209.135 336.469 209.138 336.567 209.138 336.665Z" fill="white"/>
<path opacity="0.3" d="M228.112 390.218C225.559 396.541 221.55 402.121 216.503 406.541C214.747 404.711 213.667 402.227 213.667 399.489C213.667 393.858 218.233 389.293 223.866 389.293C225.381 389.292 226.82 389.622 228.112 390.218Z" fill="white"/>
<path opacity="0.3" d="M170.46 402.889C170.46 406.335 168.813 409.397 166.26 411.33C160.148 407.75 154.997 402.709 151.282 396.685C153.205 394.027 156.335 392.298 159.867 392.298C165.716 392.298 170.46 397.038 170.46 402.889Z" fill="white"/>
<path opacity="0.3" d="M180.714 392.291C173.888 392.291 170.748 385.496 170.698 380.672L170.459 358.654C170.414 355.819 171.845 352.5 174.104 350.205C176.139 348.138 178.607 347.045 181.243 347.045C182.075 347.045 182.918 347.158 183.75 347.38C191.889 349.561 199.696 354.885 207.643 360.615C210.362 362.611 211.978 365.937 211.973 369.517C211.968 373.141 210.322 376.502 207.571 378.508C200.047 383.903 192.036 389.367 183.988 391.784C182.868 392.12 181.767 392.291 180.714 392.291Z" fill="#332A40"/>
<path opacity="0.3" d="M180.714 391.006C174.768 391.006 172.031 384.957 171.987 380.662L171.748 358.644C171.708 356.133 172.993 353.174 175.023 351.113C176.81 349.297 178.961 348.337 181.244 348.337C181.963 348.337 182.694 348.436 183.416 348.629C191.344 350.753 199.043 356.007 206.889 361.664C209.274 363.414 210.689 366.348 210.684 369.519C210.679 372.733 209.232 375.705 206.812 377.471C199.379 382.8 191.476 388.193 183.618 390.553C182.618 390.853 181.641 391.006 180.714 391.006Z" fill="#332A40"/>
<path opacity="0.3" d="M203.352 407.562C193.832 411.307 186.299 406.034 182.661 402.562C182.174 402.093 182.161 401.428 182.455 400.946C182.512 401.034 182.578 401.119 182.661 401.196C186.299 404.668 193.832 409.944 203.352 406.199C212.179 402.727 213.966 394.553 214.136 389.272C214.144 389.327 214.149 389.383 214.149 389.443C214.203 394.598 212.875 403.817 203.352 407.562Z" fill="#332A40"/>
<path d="M205.985 362.918C198.523 357.538 190.74 352.192 183.016 350.123C177.341 348.603 173.232 354.675 173.295 358.627C173.375 365.967 173.454 373.307 173.534 380.646C173.574 384.598 176.372 391.115 183.172 389.072C190.675 386.819 198.415 381.588 205.9 376.222C210.165 373.11 210.239 366.041 205.985 362.918Z" fill="white"/>
<path d="M198.205 400.338C194.631 401.885 193.61 398.278 193.61 398.278C195.674 397.857 197.847 397.225 200.032 396.294H200.039C200.039 396.294 201.777 398.795 198.205 400.338Z" fill="white"/>
<path d="M207.732 395.319C205.036 398.126 202.699 395.194 202.699 395.194L202.636 395.045C204.532 394.019 206.408 392.742 208.193 391.152C208.788 391.728 209.779 393.186 207.732 395.319Z" fill="white"/>
<path d="M208.192 391.144C208.788 391.72 209.779 393.178 207.731 395.31C205.035 398.117 202.698 395.185 202.698 395.185L202.636 395.038C202.636 395.038 202.636 395.038 202.636 395.038C201.77 395.507 200.901 395.922 200.032 396.291H200.039C200.039 396.291 201.777 398.792 198.205 400.335C194.635 401.88 193.613 398.282 193.611 398.275C189.643 399.082 186.085 399.108 183.644 398.958C182.553 398.894 181.914 400.095 182.455 400.943C182.512 401.031 182.579 401.116 182.662 401.193C186.299 404.665 193.832 409.941 203.353 406.196C212.18 402.724 213.967 394.551 214.137 389.27C214.15 388.852 214.155 388.452 214.15 388.076C214.137 386.852 212.588 386.339 211.827 387.295C210.675 388.749 209.455 390.025 208.192 391.144Z" fill="#332A40"/>
<path d="M198.975 369.67C198.975 371.559 198.47 373.33 197.585 374.853C197.273 374.172 196.585 373.698 195.788 373.698C194.698 373.698 193.814 374.582 193.814 375.672C193.814 376.593 194.443 377.366 195.294 377.585C193.489 379.108 191.158 380.026 188.614 380.026C182.893 380.026 178.253 375.389 178.253 369.67C178.253 368.244 178.541 366.886 179.062 365.649C179.779 366.597 180.921 367.208 182.205 367.208C184.386 367.208 186.154 365.44 186.154 363.259C186.154 361.978 185.543 360.839 184.597 360.12C185.832 359.599 187.191 359.311 188.614 359.311C194.335 359.311 198.975 363.948 198.975 369.67Z" fill="#332A40"/>
<path opacity="0.2" d="M188.614 372.766C190.326 372.766 191.714 371.378 191.714 369.666C191.714 367.955 190.326 366.567 188.614 366.567C186.902 366.567 185.514 367.955 185.514 369.666C185.514 371.378 186.902 372.766 188.614 372.766Z" fill="white"/>
<path d="M130.994 238.4C130.994 239.367 130.811 240.083 130.444 240.55C130.078 241.017 129.494 241.483 128.694 241.95C128.228 242.217 127.661 242.467 126.994 242.7C126.328 242.933 125.578 243.133 124.744 243.3C123.944 243.467 123.094 243.6 122.194 243.7C121.328 243.8 120.461 243.85 119.594 243.85C117.194 243.85 114.961 243.55 112.894 242.95C110.861 242.317 109.078 241.35 107.544 240.05C106.011 238.75 104.811 237.1 103.944 235.1C103.078 233.1 102.644 230.7 102.644 227.9C102.644 225.267 103.078 222.95 103.944 220.95C104.844 218.917 106.044 217.233 107.544 215.9C109.078 214.533 110.861 213.517 112.894 212.85C114.961 212.15 117.178 211.8 119.544 211.8C122.644 211.8 125.111 212.283 126.944 213.25C128.778 214.217 129.694 215.45 129.694 216.95C129.694 217.717 129.494 218.4 129.094 219C128.694 219.567 128.228 220.017 127.694 220.35C126.861 219.817 125.811 219.317 124.544 218.85C123.311 218.383 121.844 218.15 120.144 218.15C118.744 218.15 117.461 218.383 116.294 218.85C115.161 219.283 114.178 219.917 113.344 220.75C112.511 221.583 111.861 222.6 111.394 223.8C110.928 225 110.694 226.35 110.694 227.85C110.694 229.483 110.911 230.917 111.344 232.15C111.811 233.35 112.444 234.35 113.244 235.15C114.044 235.95 114.994 236.55 116.094 236.95C117.228 237.35 118.444 237.55 119.744 237.55C120.544 237.55 121.261 237.467 121.894 237.3C122.561 237.133 123.078 236.967 123.444 236.8V231.15H117.694C117.494 230.817 117.311 230.383 117.144 229.85C116.978 229.317 116.894 228.75 116.894 228.15C116.894 227.083 117.144 226.3 117.644 225.8C118.144 225.3 118.794 225.05 119.594 225.05H127.994C128.928 225.05 129.661 225.317 130.194 225.85C130.728 226.35 130.994 227.067 130.994 228V238.4ZM160.952 230.95C160.952 232.917 160.652 234.7 160.052 236.3C159.452 237.867 158.585 239.2 157.452 240.3C156.352 241.4 155.019 242.25 153.452 242.85C151.885 243.45 150.135 243.75 148.202 243.75C146.269 243.75 144.502 243.467 142.902 242.9C141.335 242.3 139.985 241.45 138.852 240.35C137.752 239.25 136.902 237.917 136.302 236.35C135.702 234.75 135.402 232.95 135.402 230.95C135.402 229.017 135.702 227.267 136.302 225.7C136.935 224.1 137.802 222.75 138.902 221.65C140.035 220.55 141.385 219.7 142.952 219.1C144.552 218.5 146.302 218.2 148.202 218.2C150.102 218.2 151.835 218.5 153.402 219.1C154.969 219.7 156.302 220.567 157.402 221.7C158.535 222.8 159.402 224.133 160.002 225.7C160.635 227.267 160.952 229.017 160.952 230.95ZM148.202 224.2C146.635 224.2 145.419 224.783 144.552 225.95C143.685 227.117 143.252 228.783 143.252 230.95C143.252 233.183 143.669 234.883 144.502 236.05C145.369 237.183 146.602 237.75 148.202 237.75C149.802 237.75 151.019 237.167 151.852 236C152.719 234.833 153.152 233.15 153.152 230.95C153.152 228.817 152.719 227.167 151.852 226C150.985 224.8 149.769 224.2 148.202 224.2ZM170.006 243.35C168.506 243.35 167.423 243.117 166.756 242.65C166.123 242.15 165.806 241.2 165.806 239.8V210.45C166.139 210.35 166.606 210.25 167.206 210.15C167.839 210.05 168.523 210 169.256 210C170.723 210 171.789 210.25 172.456 210.75C173.123 211.25 173.456 212.2 173.456 213.6V242.95C173.089 243.05 172.606 243.133 172.006 243.2C171.406 243.3 170.739 243.35 170.006 243.35ZM189.373 238.15C190.107 238.15 190.823 238.083 191.523 237.95C192.257 237.783 192.807 237.583 193.173 237.35V232.75L189.073 233.1C188.007 233.2 187.14 233.45 186.473 233.85C185.84 234.217 185.523 234.783 185.523 235.55C185.523 236.35 185.823 236.983 186.423 237.45C187.023 237.917 188.007 238.15 189.373 238.15ZM189.073 218.2C190.807 218.2 192.373 218.383 193.773 218.75C195.207 219.083 196.423 219.617 197.423 220.35C198.423 221.083 199.19 222.017 199.723 223.15C200.29 224.283 200.573 225.617 200.573 227.15V238.45C200.573 239.317 200.34 240.017 199.873 240.55C199.44 241.05 198.907 241.483 198.273 241.85C197.24 242.483 195.973 242.967 194.473 243.3C192.973 243.633 191.273 243.8 189.373 243.8C185.94 243.8 183.207 243.15 181.173 241.85C179.14 240.517 178.123 238.5 178.123 235.8C178.123 233.5 178.807 231.75 180.173 230.55C181.54 229.35 183.64 228.6 186.473 228.3L193.123 227.6V227.05C193.123 225.983 192.69 225.2 191.823 224.7C190.957 224.2 189.707 223.95 188.073 223.95C186.807 223.95 185.557 224.1 184.323 224.4C183.123 224.7 182.04 225.05 181.073 225.45C180.673 225.183 180.323 224.783 180.023 224.25C179.757 223.683 179.623 223.083 179.623 222.45C179.623 220.983 180.39 219.933 181.923 219.3C182.89 218.933 184.007 218.667 185.273 218.5C186.573 218.3 187.84 218.2 189.073 218.2ZM210.631 243.35C209.131 243.35 208.048 243.117 207.381 242.65C206.748 242.15 206.431 241.2 206.431 239.8V210.45C206.764 210.35 207.231 210.25 207.831 210.15C208.464 210.05 209.148 210 209.881 210C211.348 210 212.414 210.25 213.081 210.75C213.748 211.25 214.081 212.2 214.081 213.6V242.95C213.714 243.05 213.231 243.133 212.631 243.2C212.031 243.3 211.364 243.35 210.631 243.35ZM227.848 242.95C227.515 243.05 227.048 243.133 226.448 243.2C225.848 243.3 225.182 243.35 224.448 243.35C222.948 243.35 221.865 243.117 221.198 242.65C220.565 242.15 220.248 241.2 220.248 239.8V219.25C220.582 219.15 221.048 219.05 221.648 218.95C222.248 218.85 222.915 218.8 223.648 218.8C225.148 218.8 226.215 219.05 226.848 219.55C227.515 220.05 227.848 221 227.848 222.4V242.95ZM219.798 212.05C219.798 210.917 220.182 209.95 220.948 209.15C221.748 208.35 222.782 207.95 224.048 207.95C225.315 207.95 226.332 208.35 227.098 209.15C227.898 209.95 228.298 210.917 228.298 212.05C228.298 213.217 227.898 214.2 227.098 215C226.332 215.8 225.315 216.2 224.048 216.2C222.782 216.2 221.748 215.8 220.948 215C220.182 214.2 219.798 213.217 219.798 212.05ZM241.369 235.05C241.369 235.983 241.669 236.667 242.269 237.1C242.869 237.5 243.702 237.7 244.769 237.7C245.269 237.7 245.802 237.65 246.369 237.55C246.936 237.417 247.419 237.267 247.819 237.1C248.119 237.433 248.369 237.817 248.569 238.25C248.769 238.683 248.869 239.183 248.869 239.75C248.869 240.917 248.402 241.883 247.469 242.65C246.569 243.383 244.986 243.75 242.719 243.75C239.919 243.75 237.736 243.117 236.169 241.85C234.602 240.55 233.819 238.45 233.819 235.55V213.1C234.186 213 234.669 212.9 235.269 212.8C235.869 212.667 236.519 212.6 237.219 212.6C238.686 212.6 239.736 212.867 240.369 213.4C241.036 213.9 241.369 214.833 241.369 216.2V219.45H248.269C248.436 219.783 248.602 220.217 248.769 220.75C248.936 221.25 249.019 221.783 249.019 222.35C249.019 223.417 248.769 224.183 248.269 224.65C247.802 225.117 247.186 225.35 246.419 225.35H241.369V235.05ZM263.348 238.15C264.081 238.15 264.798 238.083 265.498 237.95C266.231 237.783 266.781 237.583 267.148 237.35V232.75L263.048 233.1C261.981 233.2 261.115 233.45 260.448 233.85C259.815 234.217 259.498 234.783 259.498 235.55C259.498 236.35 259.798 236.983 260.398 237.45C260.998 237.917 261.981 238.15 263.348 238.15ZM263.048 218.2C264.781 218.2 266.348 218.383 267.748 218.75C269.181 219.083 270.398 219.617 271.398 220.35C272.398 221.083 273.165 222.017 273.698 223.15C274.265 224.283 274.548 225.617 274.548 227.15V238.45C274.548 239.317 274.315 240.017 273.848 240.55C273.415 241.05 272.881 241.483 272.248 241.85C271.215 242.483 269.948 242.967 268.448 243.3C266.948 243.633 265.248 243.8 263.348 243.8C259.915 243.8 257.181 243.15 255.148 241.85C253.115 240.517 252.098 238.5 252.098 235.8C252.098 233.5 252.781 231.75 254.148 230.55C255.515 229.35 257.615 228.6 260.448 228.3L267.098 227.6V227.05C267.098 225.983 266.665 225.2 265.798 224.7C264.931 224.2 263.681 223.95 262.048 223.95C260.781 223.95 259.531 224.1 258.298 224.4C257.098 224.7 256.015 225.05 255.048 225.45C254.648 225.183 254.298 224.783 253.998 224.25C253.731 223.683 253.598 223.083 253.598 222.45C253.598 220.983 254.365 219.933 255.898 219.3C256.865 218.933 257.981 218.667 259.248 218.5C260.548 218.3 261.815 218.2 263.048 218.2Z" fill="#312B3E"/>
<path d="M41.8896 523.968C41.6976 524.011 41.4203 524.064 41.0576 524.128C40.7163 524.192 40.343 524.224 39.9376 524.224C39.127 524.224 38.551 524.075 38.2096 523.776C37.8896 523.477 37.7296 522.976 37.7296 522.272V506.208C37.7296 505.803 37.8363 505.493 38.0496 505.28C38.263 505.067 38.5616 504.896 38.9456 504.768C39.6283 504.533 40.4283 504.373 41.3456 504.288C42.2843 504.181 43.2443 504.128 44.2256 504.128C47.0416 504.128 49.1536 504.715 50.5616 505.888C51.9696 507.04 52.6736 508.64 52.6736 510.688C52.6736 512.032 52.3216 513.205 51.6176 514.208C50.9136 515.189 49.943 515.947 48.7056 516.48C49.6443 517.696 50.5403 518.859 51.3936 519.968C52.2683 521.056 52.919 521.909 53.3456 522.528C53.175 523.083 52.8763 523.52 52.4496 523.84C52.023 524.139 51.5536 524.288 51.0416 524.288C50.3803 524.288 49.8683 524.139 49.5056 523.84C49.1643 523.541 48.823 523.136 48.4816 522.624L44.8656 517.216H41.8896V523.968ZM44.4496 513.952C45.6656 513.952 46.6363 513.685 47.3616 513.152C48.1083 512.619 48.4816 511.808 48.4816 510.72C48.4816 508.565 47.0416 507.488 44.1616 507.488C43.735 507.488 43.319 507.509 42.9136 507.552C42.5296 507.595 42.167 507.637 41.8256 507.68V513.952H44.4496ZM59.3276 518.24C59.6263 519.328 60.181 520.117 60.9916 520.608C61.8023 521.099 62.805 521.344 63.9996 521.344C64.8956 521.344 65.717 521.216 66.4636 520.96C67.2316 520.683 67.8503 520.395 68.3196 520.096C68.6183 520.267 68.8636 520.501 69.0556 520.8C69.2476 521.099 69.3436 521.419 69.3436 521.76C69.3436 522.187 69.1943 522.571 68.8956 522.912C68.6183 523.232 68.2236 523.509 67.7116 523.744C67.221 523.979 66.6343 524.16 65.9516 524.288C65.269 524.416 64.533 524.48 63.7436 524.48C62.485 524.48 61.333 524.309 60.2876 523.968C59.2636 523.627 58.3783 523.115 57.6316 522.432C56.9063 521.728 56.3303 520.864 55.9036 519.84C55.4983 518.816 55.2956 517.621 55.2956 516.256C55.2956 514.933 55.4983 513.781 55.9036 512.8C56.309 511.819 56.853 510.997 57.5356 510.336C58.2396 509.675 59.0503 509.184 59.9676 508.864C60.885 508.544 61.8556 508.384 62.8796 508.384C63.925 508.384 64.885 508.555 65.7596 508.896C66.6343 509.216 67.381 509.675 67.9996 510.272C68.6183 510.848 69.0983 511.552 69.4396 512.384C69.8023 513.195 69.9836 514.08 69.9836 515.04C69.9836 515.637 69.8236 516.085 69.5036 516.384C69.205 516.683 68.7783 516.875 68.2236 516.96L59.3276 518.24ZM62.8796 511.424C61.8343 511.424 60.9596 511.776 60.2556 512.48C59.5516 513.163 59.157 514.144 59.0716 515.424L66.1756 514.368C66.0903 513.579 65.781 512.896 65.2476 512.32C64.7143 511.723 63.925 511.424 62.8796 511.424ZM83.2724 514.176C83.0377 515.051 82.7817 515.936 82.5044 516.832C82.2484 517.728 81.9817 518.603 81.7044 519.456C81.4484 520.288 81.1924 521.067 80.9364 521.792C80.7017 522.517 80.499 523.136 80.3284 523.648C80.0937 523.819 79.795 523.957 79.4324 524.064C79.0697 524.192 78.611 524.256 78.0564 524.256C77.4377 524.256 76.8937 524.171 76.4244 524C75.9764 523.808 75.667 523.531 75.4964 523.168C75.2404 522.656 74.9524 521.845 74.6324 520.736C74.3124 519.605 73.9817 518.379 73.6404 517.056C73.299 515.712 72.979 514.357 72.6804 512.992C72.403 511.605 72.1684 510.4 71.9764 509.376C72.1897 509.163 72.4777 508.971 72.8404 508.8C73.2244 508.608 73.6404 508.512 74.0884 508.512C74.6857 508.512 75.155 508.661 75.4964 508.96C75.8377 509.237 76.0617 509.696 76.1684 510.336C76.5737 512.896 76.9577 515.072 77.3204 516.864C77.683 518.635 77.939 519.84 78.0884 520.48H78.2164C78.3017 520.117 78.4404 519.584 78.6324 518.88C78.8457 518.176 79.0804 517.365 79.3364 516.448C79.6137 515.531 79.9017 514.549 80.2004 513.504C80.5204 512.459 80.8404 511.403 81.1604 510.336C81.459 510.165 81.7684 510.037 82.0884 509.952C82.4297 509.845 82.8244 509.792 83.2724 509.792C83.8484 509.792 84.3284 509.888 84.7124 510.08C85.1177 510.272 85.3844 510.56 85.5124 510.944C85.8324 511.968 86.131 512.971 86.4084 513.952C86.707 514.933 86.9737 515.851 87.2084 516.704C87.443 517.536 87.6457 518.283 87.8164 518.944C88.0084 519.605 88.1577 520.117 88.2644 520.48H88.4244C88.787 518.709 89.1604 516.864 89.5444 514.944C89.9497 513.024 90.291 511.04 90.5684 508.992C90.8244 508.843 91.1124 508.725 91.4324 508.64C91.7524 508.555 92.0724 508.512 92.3924 508.512C92.947 508.512 93.395 508.64 93.7364 508.896C94.099 509.152 94.2804 509.568 94.2804 510.144C94.2804 510.443 94.2164 510.933 94.0884 511.616C93.9604 512.277 93.7897 513.045 93.5764 513.92C93.3844 514.773 93.1604 515.691 92.9044 516.672C92.6697 517.632 92.4244 518.571 92.1684 519.488C91.9124 520.384 91.667 521.205 91.4324 521.952C91.1977 522.677 90.995 523.243 90.8244 523.648C90.611 523.819 90.2804 523.957 89.8324 524.064C89.4057 524.192 88.9364 524.256 88.4244 524.256C87.0804 524.256 86.2804 523.925 86.0244 523.264C85.8537 522.795 85.651 522.219 85.4164 521.536C85.1817 520.853 84.9364 520.107 84.6804 519.296C84.4457 518.485 84.2004 517.643 83.9444 516.768C83.7097 515.893 83.4857 515.029 83.2724 514.176ZM103.172 521.408C103.791 521.408 104.356 521.355 104.868 521.248C105.38 521.12 105.753 520.971 105.988 520.8V517.248L102.884 517.536C102.031 517.621 101.38 517.813 100.932 518.112C100.484 518.389 100.26 518.837 100.26 519.456C100.26 520.075 100.484 520.555 100.932 520.896C101.401 521.237 102.148 521.408 103.172 521.408ZM103.044 508.384C105.135 508.384 106.799 508.832 108.036 509.728C109.295 510.624 109.924 512.011 109.924 513.888V521.28C109.924 521.792 109.796 522.197 109.54 522.496C109.284 522.795 108.964 523.061 108.58 523.296C107.983 523.659 107.225 523.947 106.308 524.16C105.391 524.373 104.345 524.48 103.172 524.48C101.039 524.48 99.3532 524.075 98.1159 523.264C96.8999 522.432 96.2919 521.195 96.2919 519.552C96.2919 518.123 96.7399 517.035 97.6359 516.288C98.5532 515.52 99.8759 515.051 101.604 514.88L105.988 514.432V513.856C105.988 513.045 105.689 512.448 105.092 512.064C104.516 511.68 103.695 511.488 102.628 511.488C101.796 511.488 100.985 511.595 100.196 511.808C99.4065 512 98.7025 512.245 98.0839 512.544C97.8492 512.373 97.6465 512.149 97.4759 511.872C97.3265 511.573 97.2519 511.253 97.2519 510.912C97.2519 510.485 97.3479 510.144 97.5399 509.888C97.7532 509.611 98.0839 509.365 98.5319 509.152C99.1505 508.896 99.8545 508.704 100.644 508.576C101.433 508.448 102.233 508.384 103.044 508.384ZM117.971 523.968C117.779 524.011 117.523 524.064 117.203 524.128C116.883 524.192 116.52 524.224 116.115 524.224C115.368 524.224 114.813 524.085 114.451 523.808C114.088 523.531 113.907 523.04 113.907 522.336V512.192C113.907 511.637 114.035 511.168 114.291 510.784C114.547 510.4 114.92 510.059 115.411 509.76C116.072 509.355 116.883 509.024 117.843 508.768C118.824 508.512 119.88 508.384 121.011 508.384C123.037 508.384 124.051 509.013 124.051 510.272C124.051 510.571 123.997 510.859 123.891 511.136C123.805 511.392 123.709 511.605 123.603 511.776C123.112 511.669 122.504 511.616 121.779 511.616C121.032 511.616 120.328 511.701 119.667 511.872C119.005 512.043 118.44 512.256 117.971 512.512V523.968ZM140.205 521.056C140.205 521.547 140.098 521.941 139.885 522.24C139.671 522.539 139.351 522.827 138.925 523.104C138.391 523.445 137.687 523.755 136.813 524.032C135.938 524.331 134.925 524.48 133.773 524.48C131.213 524.48 129.175 523.829 127.661 522.528C126.167 521.205 125.421 519.189 125.421 516.48C125.421 515.072 125.623 513.867 126.029 512.864C126.434 511.84 126.978 510.997 127.661 510.336C128.365 509.675 129.186 509.184 130.125 508.864C131.063 508.544 132.077 508.384 133.165 508.384C133.741 508.384 134.285 508.448 134.797 508.576C135.309 508.683 135.767 508.821 136.173 508.992V503.2C136.343 503.136 136.589 503.083 136.909 503.04C137.25 502.976 137.613 502.944 137.997 502.944C138.765 502.944 139.319 503.083 139.661 503.36C140.023 503.637 140.205 504.128 140.205 504.832V521.056ZM136.173 512.256C135.853 512.064 135.479 511.904 135.053 511.776C134.626 511.648 134.167 511.584 133.677 511.584C132.482 511.584 131.49 511.968 130.701 512.736C129.911 513.504 129.517 514.763 129.517 516.512C129.517 518.155 129.89 519.36 130.637 520.128C131.405 520.875 132.439 521.248 133.741 521.248C134.295 521.248 134.765 521.184 135.149 521.056C135.554 520.928 135.895 520.779 136.173 520.608V512.256ZM156.121 519.712C156.121 521.205 155.566 522.379 154.457 523.232C153.348 524.064 151.726 524.48 149.593 524.48C148.718 524.48 147.918 524.416 147.193 524.288C146.489 524.16 145.87 523.979 145.337 523.744C144.825 523.488 144.42 523.189 144.121 522.848C143.844 522.485 143.705 522.091 143.705 521.664C143.705 521.259 143.79 520.907 143.961 520.608C144.153 520.309 144.398 520.064 144.697 519.872C145.294 520.256 145.977 520.597 146.745 520.896C147.534 521.195 148.441 521.344 149.465 521.344C150.34 521.344 151.001 521.205 151.449 520.928C151.897 520.629 152.121 520.224 152.121 519.712C152.121 518.837 151.481 518.261 150.201 517.984L148.409 517.568C146.83 517.205 145.657 516.661 144.889 515.936C144.142 515.211 143.769 514.24 143.769 513.024C143.769 511.637 144.324 510.517 145.433 509.664C146.542 508.789 148.1 508.352 150.105 508.352C150.873 508.352 151.577 508.416 152.217 508.544C152.878 508.651 153.444 508.821 153.913 509.056C154.404 509.269 154.777 509.536 155.033 509.856C155.31 510.155 155.449 510.507 155.449 510.912C155.449 511.296 155.364 511.637 155.193 511.936C155.022 512.213 154.82 512.437 154.585 512.608C154.393 512.48 154.137 512.352 153.817 512.224C153.518 512.096 153.177 511.979 152.793 511.872C152.43 511.765 152.036 511.68 151.609 511.616C151.204 511.531 150.798 511.488 150.393 511.488C149.561 511.488 148.91 511.627 148.441 511.904C147.972 512.16 147.737 512.533 147.737 513.024C147.737 513.387 147.865 513.685 148.121 513.92C148.398 514.155 148.868 514.347 149.529 514.496L151.097 514.88C152.868 515.285 154.148 515.883 154.937 516.672C155.726 517.44 156.121 518.453 156.121 519.712ZM171.734 521.408C172.353 521.408 172.918 521.355 173.43 521.248C173.942 521.12 174.316 520.971 174.55 520.8V517.248L171.446 517.536C170.593 517.621 169.942 517.813 169.494 518.112C169.046 518.389 168.822 518.837 168.822 519.456C168.822 520.075 169.046 520.555 169.494 520.896C169.964 521.237 170.71 521.408 171.734 521.408ZM171.606 508.384C173.697 508.384 175.361 508.832 176.598 509.728C177.857 510.624 178.486 512.011 178.486 513.888V521.28C178.486 521.792 178.358 522.197 178.102 522.496C177.846 522.795 177.526 523.061 177.142 523.296C176.545 523.659 175.788 523.947 174.87 524.16C173.953 524.373 172.908 524.48 171.734 524.48C169.601 524.48 167.916 524.075 166.678 523.264C165.462 522.432 164.854 521.195 164.854 519.552C164.854 518.123 165.302 517.035 166.198 516.288C167.116 515.52 168.438 515.051 170.166 514.88L174.55 514.432V513.856C174.55 513.045 174.252 512.448 173.654 512.064C173.078 511.68 172.257 511.488 171.19 511.488C170.358 511.488 169.548 511.595 168.758 511.808C167.969 512 167.265 512.245 166.646 512.544C166.412 512.373 166.209 512.149 166.038 511.872C165.889 511.573 165.814 511.253 165.814 510.912C165.814 510.485 165.91 510.144 166.102 509.888C166.316 509.611 166.646 509.365 167.094 509.152C167.713 508.896 168.417 508.704 169.206 508.576C169.996 508.448 170.796 508.384 171.606 508.384ZM192.517 514.24C192.517 513.323 192.25 512.651 191.717 512.224C191.205 511.797 190.501 511.584 189.605 511.584C188.986 511.584 188.41 511.659 187.877 511.808C187.365 511.957 186.917 512.149 186.533 512.384V523.968C186.341 524.011 186.085 524.064 185.765 524.128C185.445 524.192 185.082 524.224 184.677 524.224C183.93 524.224 183.376 524.085 183.013 523.808C182.65 523.531 182.469 523.04 182.469 522.336V512.064C182.469 511.552 182.576 511.136 182.789 510.816C183.002 510.496 183.333 510.187 183.781 509.888C184.4 509.461 185.221 509.109 186.245 508.832C187.269 508.533 188.4 508.384 189.637 508.384C191.834 508.384 193.53 508.875 194.725 509.856C195.941 510.816 196.549 512.235 196.549 514.112V523.968C196.378 524.011 196.122 524.064 195.781 524.128C195.461 524.192 195.109 524.224 194.725 524.224C193.957 524.224 193.392 524.085 193.029 523.808C192.688 523.531 192.517 523.04 192.517 522.336V514.24ZM214.673 521.056C214.673 521.547 214.567 521.941 214.353 522.24C214.14 522.539 213.82 522.827 213.393 523.104C212.86 523.445 212.156 523.755 211.281 524.032C210.407 524.331 209.393 524.48 208.241 524.48C205.681 524.48 203.644 523.829 202.129 522.528C200.636 521.205 199.889 519.189 199.889 516.48C199.889 515.072 200.092 513.867 200.497 512.864C200.903 511.84 201.447 510.997 202.129 510.336C202.833 509.675 203.655 509.184 204.593 508.864C205.532 508.544 206.545 508.384 207.633 508.384C208.209 508.384 208.753 508.448 209.265 508.576C209.777 508.683 210.236 508.821 210.641 508.992V503.2C210.812 503.136 211.057 503.083 211.377 503.04C211.719 502.976 212.081 502.944 212.465 502.944C213.233 502.944 213.788 503.083 214.129 503.36C214.492 503.637 214.673 504.128 214.673 504.832V521.056ZM210.641 512.256C210.321 512.064 209.948 511.904 209.521 511.776C209.095 511.648 208.636 511.584 208.145 511.584C206.951 511.584 205.959 511.968 205.169 512.736C204.38 513.504 203.985 514.763 203.985 516.512C203.985 518.155 204.359 519.36 205.105 520.128C205.873 520.875 206.908 521.248 208.209 521.248C208.764 521.248 209.233 521.184 209.617 521.056C210.023 520.928 210.364 520.779 210.641 520.608V512.256ZM238.596 514.208C238.596 513.056 238.436 512.064 238.116 511.232C237.796 510.379 237.348 509.685 236.772 509.152C236.217 508.597 235.545 508.192 234.756 507.936C233.988 507.659 233.145 507.52 232.228 507.52C231.737 507.52 231.289 507.541 230.884 507.584C230.5 507.605 230.127 507.637 229.764 507.68V520.832C230.127 520.917 230.532 520.981 230.98 521.024C231.449 521.045 231.908 521.056 232.356 521.056C234.34 521.056 235.876 520.48 236.964 519.328C238.052 518.176 238.596 516.469 238.596 514.208ZM242.852 514.176C242.852 515.904 242.596 517.419 242.084 518.72C241.593 520 240.889 521.067 239.972 521.92C239.055 522.752 237.945 523.381 236.644 523.808C235.364 524.235 233.935 524.448 232.356 524.448C231.993 524.448 231.599 524.437 231.172 524.416C230.745 524.416 230.297 524.384 229.828 524.32C229.38 524.277 228.921 524.213 228.452 524.128C228.004 524.043 227.577 523.925 227.172 523.776C226.148 523.392 225.636 522.752 225.636 521.856V506.176C225.636 505.792 225.743 505.493 225.956 505.28C226.169 505.067 226.468 504.896 226.852 504.768C227.641 504.491 228.495 504.32 229.412 504.256C230.351 504.171 231.236 504.128 232.068 504.128C233.668 504.128 235.129 504.341 236.452 504.768C237.796 505.173 238.937 505.792 239.876 506.624C240.815 507.456 241.54 508.501 242.052 509.76C242.585 511.019 242.852 512.491 242.852 514.176ZM246.442 508.96C246.612 508.917 246.858 508.864 247.178 508.8C247.519 508.736 247.882 508.704 248.266 508.704C249.034 508.704 249.588 508.843 249.93 509.12C250.292 509.397 250.474 509.888 250.474 510.592V523.968C250.303 524.011 250.047 524.064 249.706 524.128C249.386 524.192 249.034 524.224 248.65 524.224C247.882 524.224 247.316 524.085 246.954 523.808C246.612 523.531 246.442 523.04 246.442 522.336V508.96ZM246.122 504.32C246.122 503.701 246.335 503.179 246.762 502.752C247.21 502.304 247.775 502.08 248.458 502.08C249.14 502.08 249.695 502.304 250.122 502.752C250.548 503.179 250.762 503.701 250.762 504.32C250.762 504.96 250.548 505.504 250.122 505.952C249.695 506.379 249.14 506.592 248.458 506.592C247.775 506.592 247.21 506.379 246.762 505.952C246.335 505.504 246.122 504.96 246.122 504.32ZM266.465 519.712C266.465 521.205 265.91 522.379 264.801 523.232C263.691 524.064 262.07 524.48 259.937 524.48C259.062 524.48 258.262 524.416 257.537 524.288C256.833 524.16 256.214 523.979 255.681 523.744C255.169 523.488 254.763 523.189 254.465 522.848C254.187 522.485 254.049 522.091 254.049 521.664C254.049 521.259 254.134 520.907 254.305 520.608C254.497 520.309 254.742 520.064 255.041 519.872C255.638 520.256 256.321 520.597 257.089 520.896C257.878 521.195 258.785 521.344 259.809 521.344C260.683 521.344 261.345 521.205 261.793 520.928C262.241 520.629 262.465 520.224 262.465 519.712C262.465 518.837 261.825 518.261 260.545 517.984L258.753 517.568C257.174 517.205 256.001 516.661 255.233 515.936C254.486 515.211 254.113 514.24 254.113 513.024C254.113 511.637 254.667 510.517 255.777 509.664C256.886 508.789 258.443 508.352 260.449 508.352C261.217 508.352 261.921 508.416 262.561 508.544C263.222 508.651 263.787 508.821 264.257 509.056C264.747 509.269 265.121 509.536 265.377 509.856C265.654 510.155 265.793 510.507 265.793 510.912C265.793 511.296 265.707 511.637 265.537 511.936C265.366 512.213 265.163 512.437 264.929 512.608C264.737 512.48 264.481 512.352 264.161 512.224C263.862 512.096 263.521 511.979 263.137 511.872C262.774 511.765 262.379 511.68 261.953 511.616C261.547 511.531 261.142 511.488 260.737 511.488C259.905 511.488 259.254 511.627 258.785 511.904C258.315 512.16 258.081 512.533 258.081 513.024C258.081 513.387 258.209 513.685 258.465 513.92C258.742 514.155 259.211 514.347 259.873 514.496L261.441 514.88C263.211 515.285 264.491 515.883 265.281 516.672C266.07 517.44 266.465 518.453 266.465 519.712ZM277.684 511.616C277.044 511.616 276.447 511.723 275.892 511.936C275.359 512.149 274.889 512.459 274.484 512.864C274.1 513.269 273.791 513.771 273.556 514.368C273.321 514.965 273.204 515.659 273.204 516.448C273.204 518.027 273.62 519.221 274.452 520.032C275.284 520.821 276.361 521.216 277.684 521.216C278.431 521.216 279.071 521.12 279.604 520.928C280.159 520.715 280.649 520.491 281.076 520.256C281.375 520.469 281.609 520.715 281.78 520.992C281.972 521.269 282.068 521.589 282.068 521.952C282.068 522.677 281.641 523.275 280.788 523.744C279.935 524.213 278.783 524.448 277.332 524.448C276.116 524.448 274.996 524.288 273.972 523.968C272.969 523.627 272.105 523.125 271.38 522.464C270.655 521.781 270.089 520.939 269.684 519.936C269.3 518.933 269.108 517.771 269.108 516.448C269.108 515.104 269.321 513.931 269.748 512.928C270.175 511.904 270.751 511.061 271.476 510.4C272.223 509.717 273.087 509.216 274.068 508.896C275.049 508.555 276.095 508.384 277.204 508.384C278.633 508.384 279.775 508.64 280.628 509.152C281.481 509.643 281.908 510.251 281.908 510.976C281.908 511.317 281.812 511.627 281.62 511.904C281.449 512.181 281.247 512.405 281.012 512.576C280.585 512.341 280.105 512.128 279.572 511.936C279.06 511.723 278.431 511.616 277.684 511.616ZM299.851 516.416C299.851 517.653 299.659 518.773 299.275 519.776C298.912 520.757 298.389 521.6 297.707 522.304C297.024 523.008 296.203 523.552 295.243 523.936C294.283 524.299 293.205 524.48 292.011 524.48C290.816 524.48 289.739 524.299 288.779 523.936C287.819 523.552 286.997 523.019 286.315 522.336C285.632 521.632 285.099 520.789 284.715 519.808C284.352 518.805 284.171 517.675 284.171 516.416C284.171 515.179 284.352 514.069 284.715 513.088C285.099 512.085 285.632 511.243 286.315 510.56C287.019 509.856 287.851 509.323 288.811 508.96C289.771 508.576 290.837 508.384 292.011 508.384C293.184 508.384 294.251 508.576 295.211 508.96C296.171 509.323 296.992 509.856 297.675 510.56C298.379 511.264 298.912 512.117 299.275 513.12C299.659 514.101 299.851 515.2 299.851 516.416ZM292.011 511.584C290.859 511.584 289.952 512.011 289.291 512.864C288.629 513.696 288.299 514.88 288.299 516.416C288.299 517.973 288.619 519.168 289.259 520C289.92 520.832 290.837 521.248 292.011 521.248C293.184 521.248 294.091 520.832 294.731 520C295.392 519.147 295.723 517.952 295.723 516.416C295.723 514.88 295.392 513.696 294.731 512.864C294.069 512.011 293.163 511.584 292.011 511.584ZM317.237 521.024C317.237 521.515 317.151 521.931 316.981 522.272C316.81 522.592 316.501 522.88 316.053 523.136C315.434 523.52 314.645 523.84 313.685 524.096C312.746 524.352 311.669 524.48 310.453 524.48C309.343 524.48 308.341 524.352 307.445 524.096C306.549 523.861 305.781 523.488 305.141 522.976C304.501 522.464 304.01 521.813 303.669 521.024C303.327 520.235 303.157 519.296 303.157 518.208V508.896C303.327 508.832 303.573 508.779 303.893 508.736C304.234 508.672 304.607 508.64 305.013 508.64C305.759 508.64 306.314 508.779 306.677 509.056C307.039 509.312 307.221 509.803 307.221 510.528V518.144C307.221 519.253 307.498 520.053 308.053 520.544C308.629 521.013 309.439 521.248 310.485 521.248C311.146 521.248 311.701 521.184 312.149 521.056C312.618 520.928 312.97 520.789 313.205 520.64V508.896C313.375 508.832 313.621 508.779 313.941 508.736C314.282 508.672 314.645 508.64 315.029 508.64C315.797 508.64 316.351 508.779 316.693 509.056C317.055 509.312 317.237 509.803 317.237 510.528V521.024ZM331.33 514.24C331.33 513.323 331.063 512.651 330.53 512.224C330.018 511.797 329.314 511.584 328.418 511.584C327.799 511.584 327.223 511.659 326.69 511.808C326.178 511.957 325.73 512.149 325.346 512.384V523.968C325.154 524.011 324.898 524.064 324.578 524.128C324.258 524.192 323.895 524.224 323.49 524.224C322.743 524.224 322.188 524.085 321.826 523.808C321.463 523.531 321.282 523.04 321.282 522.336V512.064C321.282 511.552 321.388 511.136 321.602 510.816C321.815 510.496 322.146 510.187 322.594 509.888C323.212 509.461 324.034 509.109 325.058 508.832C326.082 508.533 327.212 508.384 328.45 508.384C330.647 508.384 332.343 508.875 333.538 509.856C334.754 510.816 335.362 512.235 335.362 514.112V523.968C335.191 524.011 334.935 524.064 334.594 524.128C334.274 524.192 333.922 524.224 333.538 524.224C332.77 524.224 332.204 524.085 331.842 523.808C331.5 523.531 331.33 523.04 331.33 522.336V514.24ZM343.502 519.296C343.502 519.979 343.705 520.469 344.11 520.768C344.537 521.067 345.123 521.216 345.87 521.216C346.233 521.216 346.595 521.173 346.958 521.088C347.342 521.003 347.683 520.896 347.982 520.768C348.153 520.939 348.291 521.152 348.398 521.408C348.526 521.643 348.59 521.92 348.59 522.24C348.59 522.88 348.302 523.413 347.726 523.84C347.15 524.245 346.222 524.448 344.942 524.448C343.257 524.448 341.923 524.075 340.942 523.328C339.982 522.56 339.502 521.301 339.502 519.552V504.864C339.673 504.821 339.918 504.768 340.238 504.704C340.579 504.64 340.942 504.608 341.326 504.608C342.073 504.608 342.617 504.747 342.958 505.024C343.321 505.301 343.502 505.792 343.502 506.496V509.152H348.206C348.313 509.323 348.409 509.547 348.494 509.824C348.579 510.101 348.622 510.4 348.622 510.72C348.622 511.275 348.494 511.68 348.238 511.936C347.982 512.192 347.641 512.32 347.214 512.32H343.502V519.296Z" fill="#312B3E"/>
</g>
<defs>
<linearGradient id="paint0_linear_1862_17138" x1="-15.3253" y1="6.74624" x2="134.008" y2="253.972" gradientUnits="userSpaceOnUse">
<stop stop-color="#2DC8D8"/>
<stop offset="1" stop-color="#ECF281"/>
</linearGradient>
<linearGradient id="paint1_linear_1862_17138" x1="267.146" y1="56.2262" x2="329.87" y2="160.067" gradientUnits="userSpaceOnUse">
<stop stop-color="#2DC8D8"/>
<stop offset="1" stop-color="#ECF281"/>
</linearGradient>
<linearGradient id="paint2_linear_1862_17138" x1="49.5273" y1="186.655" x2="80.1978" y2="237.431" gradientUnits="userSpaceOnUse">
<stop stop-color="#2DC8D8"/>
<stop offset="1" stop-color="#ECF281"/>
</linearGradient>
<linearGradient id="paint3_linear_1862_17138" x1="189.781" y1="82.3774" x2="209.214" y2="114.548" gradientUnits="userSpaceOnUse">
<stop stop-color="#2DC8D8"/>
<stop offset="1" stop-color="#ECF281"/>
</linearGradient>
<linearGradient id="paint4_linear_1862_17138" x1="308.214" y1="137.055" x2="414.576" y2="313.14" gradientUnits="userSpaceOnUse">
<stop stop-color="#2DC8D8"/>
<stop offset="1" stop-color="#ECF281"/>
</linearGradient>
<linearGradient id="paint5_linear_1862_17138" x1="14.5458" y1="6.74624" x2="163.879" y2="253.972" gradientUnits="userSpaceOnUse">
<stop stop-color="#2DC8D8"/>
<stop offset="1" stop-color="#ECF281"/>
</linearGradient>
<linearGradient id="paint6_linear_1862_17138" x1="6.10961" y1="2.83359" x2="68.8331" y2="106.675" gradientUnits="userSpaceOnUse">
<stop stop-color="#2DC8D8"/>
<stop offset="1" stop-color="#ECF281"/>
</linearGradient>
<linearGradient id="paint7_linear_1862_17138" x1="2.98747" y1="1.38557" x2="33.658" y2="52.1617" gradientUnits="userSpaceOnUse">
<stop stop-color="#2DC8D8"/>
<stop offset="1" stop-color="#ECF281"/>
</linearGradient>
<linearGradient id="paint8_linear_1862_17138" x1="1.89282" y1="0.877876" x2="21.3253" y2="33.049" gradientUnits="userSpaceOnUse">
<stop stop-color="#2DC8D8"/>
<stop offset="1" stop-color="#ECF281"/>
</linearGradient>
<linearGradient id="paint9_linear_1862_17138" x1="10.3602" y1="4.80496" x2="116.721" y2="180.89" gradientUnits="userSpaceOnUse">
<stop stop-color="#2DC8D8"/>
<stop offset="1" stop-color="#ECF281"/>
</linearGradient>
<linearGradient id="paint10_linear_1862_17138" x1="110.577" y1="287.152" x2="291.03" y2="585.899" gradientUnits="userSpaceOnUse">
<stop stop-color="#2DC8D8"/>
<stop offset="1" stop-color="#ECF281"/>
</linearGradient>
<linearGradient id="paint11_linear_1862_17138" x1="116.615" y1="294.451" x2="282.429" y2="568.962" gradientUnits="userSpaceOnUse">
<stop stop-color="#2DC8D8"/>
<stop offset="1" stop-color="#ECF281"/>
</linearGradient>
<linearGradient id="paint12_linear_1862_17138" x1="124.905" y1="301.881" x2="273.464" y2="547.825" gradientUnits="userSpaceOnUse">
<stop stop-color="#2DC8D8"/>
<stop offset="1" stop-color="#ECF281"/>
</linearGradient>
<linearGradient id="paint13_linear_1862_17138" x1="134.751" y1="312.925" x2="260.38" y2="520.907" gradientUnits="userSpaceOnUse">
<stop stop-color="#2DC8D8"/>
<stop offset="1" stop-color="#ECF281"/>
</linearGradient>
<linearGradient id="paint14_linear_1862_17138" x1="142.863" y1="324.466" x2="246.918" y2="496.734" gradientUnits="userSpaceOnUse">
<stop stop-color="#2DC8D8"/>
<stop offset="1" stop-color="#ECF281"/>
</linearGradient>
<linearGradient id="paint15_linear_1862_17138" x1="152.869" y1="334.596" x2="234.805" y2="470.272" gradientUnits="userSpaceOnUse">
<stop stop-color="#2DC8D8"/>
<stop offset="1" stop-color="#ECF281"/>
</linearGradient>
<clipPath id="clip0_1862_17138">
<rect width="375" height="813" fill="white"/>
</clipPath>
</defs>
</svg>
