<svg xmlns="http://www.w3.org/2000/svg" viewBox="0 0 32 32" width="24" height="24" fill="currentColor">
  <path d="M26.913 26.926c-0.374 0.187-0.747 0.374-1.121 0.498-0.062 0-0.125 0.062-0.187 0.062-0.187 0.062-0.311 0.062-0.498 0.125-0.062 0-0.062 0-0.125 0-0.187 0-0.374 0.062-0.623 0.062h-4.234l-1.619-1.681h5.852c0.872 0 1.743-0.374 2.304-1.058 0.623-0.685 0.872-1.494 0.747-2.428l-0.436-3.736c-0.187-1.556-1.494-2.739-3.113-2.739h-15.938c-1.556 0-2.926 1.183-3.113 2.739l-0.436 3.736c-0.125 0.872 0.187 1.743 0.747 2.428 0.623 0.685 1.432 1.058 2.304 1.058h5.852l-1.556 1.619h-4.234c-0.187 0-0.374 0-0.623-0.062 0 0 0 0 0 0-0.187 0-0.374-0.062-0.56-0.125-2.49-0.56-4.296-2.926-3.985-5.603l0.311-2.802 0.125-0.934c0-0.187 0.062-0.311 0.062-0.498 0.125-0.498 0.249-0.934 0.498-1.37 0.249-0.374 0.498-0.747 0.872-1.121 0.062-0.125 0.187-0.187 0.311-0.249 0.062-0.062 0.187-0.125 0.249-0.187s0.125-0.125 0.249-0.187c0.374-0.249 0.809-0.498 1.245-0.685v0c0.249-0.062 0.498-0.187 0.809-0.187 0.311-0.062 0.623-0.062 0.996-0.062h4.981v0.311c0 0.436 0.374 0.747 0.809 0.747h4.483c0.436 0 0.747-0.311 0.809-0.747v-0.311h4.918c0.747 0 1.432 0.187 2.117 0.436v0c0.249 0.125 0.498 0.249 0.747 0.374 0.062 0.062 0.187 0.125 0.249 0.187 0 0 0 0 0 0 0.125 0.062 0.187 0.125 0.249 0.249 0.062 0.062 0.125 0.062 0.187 0.125 0.125 0.062 0.187 0.187 0.311 0.311 0.062 0.062 0.062 0.062 0.125 0.125s0.062 0.125 0.125 0.125c0.062 0.125 0.187 0.187 0.249 0.311 0.249 0.374 0.436 0.685 0.56 1.121 0.125 0.374 0.249 0.809 0.311 1.245l0.374 3.3 0.062 0.374c0 0 0 0.062 0 0.062 0 2.117-1.121 4.047-2.802 5.043zM7.488 24.436c-0.436 0-0.872-0.187-1.121-0.498-0.311-0.311-0.436-0.747-0.374-1.183l0.436-3.736c0.062-0.809 0.685-1.37 1.494-1.37h16c0.809 0 1.432 0.56 1.494 1.37l0.436 3.736c0.062 0.436-0.062 0.872-0.374 1.183s-0.685 0.498-1.121 0.498h-16.872zM12.655 7.502l-0.062-1.058c-2.864 0.56-5.105 2.677-5.977 5.354 0.436-0.062 0.872-0.125 1.37-0.125h1.307c0.56-1.93 1.743-3.424 3.362-4.171zM19.317 6.381l-0.062 0.996c1.743 0.685 3.051 2.241 3.735 4.296h0.934c0.623 0 1.183 0.062 1.743 0.249-0.934-2.864-3.362-5.043-6.35-5.541zM14.025 4.327h3.798l-0.062 1.432-0.062 0.498-0.187 5.416-0.062 1.307h-2.988l-0.062-0.996z"/>
</svg>
