<?xml version="1.0" encoding="UTF-8"?>
<svg id="Layer_1" data-name="Layer 1"  xmlns="http://www.w3.org/2000/svg" viewBox="0 0 283.46 110.91">
  <defs>
    <style>
      .cls-1 {
        fill: #edebeb;
      }

      .cls-2 {
        fill: #bb2127;
      }
    </style>
  </defs>
  <path class="cls-2" d="M282.76,14.8c0-2.55-4.92-2.55-4.92-5.09s4.92-2.55,4.92-5.09c0-2.3-4.02-2.52-4.79-4.43H73.29v.78c0,.8-.81,1.45-1.81,1.45s-1.81-.65-1.81-1.45V.19h-12.13v110.73h12.13v-.67c0-.8.81-1.45,1.81-1.45s1.81.65,1.81,1.45v.67h204.68c.77-1.9,4.79-2.12,4.79-4.43,0-2.55-4.92-2.55-4.92-5.09s4.92-2.55,4.92-5.09-4.92-2.55-4.92-5.09,4.92-2.55,4.92-5.09-4.92-2.55-4.92-5.09,4.92-2.55,4.92-5.09-4.92-2.55-4.92-5.09,4.92-2.55,4.92-5.09-4.92-2.55-4.92-5.09,4.92-2.55,4.92-5.09-4.92-2.55-4.92-5.09,4.92-2.55,4.92-5.09-4.92-2.55-4.92-5.09,4.92-2.55,4.92-5.09-4.92-2.55-4.92-5.09,4.92-2.55,4.92-5.09-4.92-2.55-4.92-5.09,4.92-2.55,4.92-5.09ZM73.29,105.5c0,.8-.81,1.45-1.81,1.45s-1.81-.65-1.81-1.45v-4.75c0-.8.81-1.45,1.81-1.45s1.81.65,1.81,1.45v4.75ZM73.29,96c0,.8-.81,1.45-1.81,1.45s-1.81-.65-1.81-1.45v-4.75c0-.8.81-1.45,1.81-1.45s1.81.65,1.81,1.45v4.75ZM73.29,86.5c0,.8-.81,1.45-1.81,1.45s-1.81-.65-1.81-1.45v-4.75c0-.8.81-1.45,1.81-1.45s1.81.65,1.81,1.45v4.75ZM73.29,76.99c0,.8-.81,1.45-1.81,1.45s-1.81-.65-1.81-1.45v-4.75c0-.8.81-1.45,1.81-1.45s1.81.65,1.81,1.45v4.75ZM73.29,67.49c0,.8-.81,1.45-1.81,1.45s-1.81-.65-1.81-1.45v-4.75c0-.8.81-1.45,1.81-1.45s1.81.65,1.81,1.45v4.75ZM73.29,57.99c0,.8-.81,1.45-1.81,1.45s-1.81-.65-1.81-1.45v-4.75c0-.8.81-1.45,1.81-1.45s1.81.65,1.81,1.45v4.75ZM73.29,48.48c0,.8-.81,1.45-1.81,1.45s-1.81-.65-1.81-1.45v-4.75c0-.8.81-1.45,1.81-1.45s1.81.65,1.81,1.45v4.75ZM73.29,38.98c0,.8-.81,1.45-1.81,1.45s-1.81-.65-1.81-1.45v-4.75c0-.8.81-1.45,1.81-1.45s1.81.65,1.81,1.45v4.75ZM73.29,29.48c0,.8-.81,1.45-1.81,1.45s-1.81-.65-1.81-1.45v-4.75c0-.8.81-1.45,1.81-1.45s1.81.65,1.81,1.45v4.75ZM73.29,19.98c0,.8-.81,1.45-1.81,1.45s-1.81-.65-1.81-1.45v-4.75c0-.8.81-1.45,1.81-1.45s1.81.65,1.81,1.45v4.75ZM73.29,10.47c0,.8-.81,1.45-1.81,1.45s-1.81-.65-1.81-1.45v-4.75c0-.8.81-1.45,1.81-1.45s1.81.65,1.81,1.45v4.75Z"/>
  <path class="cls-1" d="M5.13.19C4.35,2.09.3,2.32.3,4.62c0,2.55,4.95,2.55,4.95,5.09S.3,12.26.3,14.8s4.95,2.55,4.95,5.09S.3,22.44.3,24.99s4.95,2.55,4.95,5.09S.3,32.63.3,35.18s4.95,2.55,4.95,5.09S.3,42.82.3,45.37s4.95,2.55,4.95,5.09S.3,53.01.3,55.55s4.95,2.55,4.95,5.09-4.95,2.55-4.95,5.09,4.95,2.55,4.95,5.09-4.95,2.55-4.95,5.09,4.95,2.55,4.95,5.09-4.95,2.55-4.95,5.09,4.95,2.55,4.95,5.09-4.95,2.55-4.95,5.09,4.95,2.55,4.95,5.09-4.95,2.55-4.95,5.09c0,2.3,4.05,2.52,4.83,4.43h52.41V.19H5.13Z"/>
</svg>