<svg width="18" height="18" viewBox="0 0 18 18" fill="none" xmlns="http://www.w3.org/2000/svg">
<path d="M18 8.99986C18.0036 13.9342 14.028 17.95 9.0904 17.9995C4.15281 18.0491 0.0973085 14.1139 0.00172019 9.18048C-0.093868 4.24708 3.80616 0.157976 8.74196 0.0164967C8.91215 -0.00549939 9.08447 -0.00549892 9.25466 0.0164982C14.1221 0.151783 17.9982 4.13284 18 8.99873V8.99986ZM5.98752 16.1202C6.18001 16.2012 6.37516 16.2743 6.57296 16.3395C5.39389 14.2946 4.77734 11.9744 4.78593 9.61443L1.28461 9.61443C1.51744 12.489 3.32975 14.9961 5.98752 16.1202ZM1.86778 5.99178C1.54887 6.74405 1.35275 7.54256 1.28688 8.35689L4.78593 8.35689C4.77882 6.01113 5.3863 3.70436 6.54796 1.66594C6.35925 1.7288 6.17243 1.79924 5.98752 1.87724C4.13227 2.66297 2.65509 4.13828 1.86778 5.99178ZM11.9511 8.35689C11.9231 7.47563 11.8239 6.59806 11.6544 5.73277C11.4887 4.84751 11.2165 3.98549 10.8439 3.16545C10.3357 2.08399 9.69687 1.37854 9.14211 1.27176C9.04625 1.27033 8.95037 1.27033 8.85451 1.27176C8.29975 1.37854 7.66087 2.08399 7.15273 3.16658C6.7805 3.98668 6.50873 4.84869 6.34333 5.73391C6.1739 6.59882 6.07468 7.47601 6.04663 8.35689L11.9511 8.35689ZM10.8439 14.8047C11.2165 13.9847 11.4887 13.1227 11.6544 12.2374C11.8234 11.3725 11.9223 10.4953 11.95 9.61443H6.04777C6.07579 10.4957 6.17502 11.3733 6.34447 12.2386C6.50993 13.1234 6.78169 13.985 7.15387 14.8047C7.70748 15.9816 8.41457 16.7132 9.00001 16.7132C9.58546 16.7132 10.2925 15.9816 10.845 14.8047L10.8439 14.8047ZM16.1322 12.0079C16.4547 11.2468 16.6516 10.4385 16.7154 9.61443H13.2118C13.2209 11.9752 12.6044 14.2963 11.4248 16.3417C11.6226 16.2766 11.8185 16.2031 12.0125 16.1213C13.8676 15.3359 15.3447 13.861 16.1322 12.0079ZM12.0125 1.87724C11.8274 1.79915 11.6393 1.72829 11.4487 1.66481C12.6104 3.70319 13.2179 6.00998 13.2107 8.35576H16.7131C16.4712 5.49172 14.6614 2.99734 12.0125 1.87724Z" fill="currentColor"/>
</svg>
